<?xml version="1.0" standalone="no"?>
<!DOCTYPE svg PUBLIC "-//W3C//DTD SVG 20010904//EN"
 "http://www.w3.org/TR/2001/REC-SVG-20010904/DTD/svg10.dtd">
<svg version="1.0" xmlns="http://www.w3.org/2000/svg"
 width="512.000000pt" height="512.000000pt" viewBox="0 0 512.000000 512.000000"
 preserveAspectRatio="xMidYMid meet">
<metadata>
Created by potrace 1.14, written by Peter Selinger 2001-2017
</metadata>
<g transform="translate(0.000000,512.000000) scale(0.100000,-0.100000)"
fill="#000000" stroke="none">
<path d="M0 2560 l0 -2560 2560 0 2560 0 0 2560 0 2560 -2560 0 -2560 0 0
-2560z m964 469 c12 -11 1 -49 -27 -90 l-23 -34 -144 -1 -145 -1 -32 -189
c-38 -223 -60 -384 -69 -512 -8 -109 -17 -120 -106 -129 -76 -8 -83 4 -82 126
2 104 21 229 60 386 29 116 70 247 91 289 l15 29 -53 -6 c-30 -3 -105 -20
-167 -37 -130 -37 -148 -33 -113 24 42 68 162 137 271 156 56 9 512 0 524 -11z
m2547 -18 c25 -25 29 -37 29 -84 0 -86 -37 -146 -210 -337 -142 -157 -140
-154 -140 -216 0 -105 51 -152 143 -132 26 5 67 24 90 42 35 26 43 40 49 76
15 102 63 194 133 259 70 64 122 84 212 79 70 -3 77 -6 104 -36 24 -27 29 -41
29 -87 0 -87 -48 -131 -215 -195 -84 -33 -95 -47 -73 -93 20 -42 68 -61 138
-55 77 8 136 42 175 103 35 55 66 75 89 56 7 -6 23 -38 35 -71 27 -73 70 -110
136 -118 65 -7 59 10 -36 115 -103 112 -112 130 -107 208 3 49 10 70 31 99 56
73 181 106 272 72 60 -23 75 -47 75 -118 0 -52 -3 -62 -36 -98 -19 -21 -44
-42 -55 -45 -27 -9 -24 -21 21 -72 45 -52 56 -92 41 -150 -24 -89 -131 -140
-276 -131 -82 6 -130 22 -172 60 -22 20 -22 20 -55 0 -64 -38 -139 -56 -233
-56 -102 0 -157 20 -196 74 l-22 29 -35 -31 c-55 -47 -108 -68 -181 -68 -35 0
-81 5 -102 12 -47 13 -113 68 -135 110 l-15 30 -52 -49 c-29 -27 -74 -60 -101
-73 -57 -27 -143 -38 -175 -21 -69 37 -90 199 -56 438 l7 52 -33 3 c-31 3 -34
6 -32 32 3 47 29 76 67 76 32 0 34 3 55 59 26 71 59 121 87 132 33 12 67 -12
84 -58 13 -40 13 -45 -8 -81 -12 -22 -22 -42 -22 -46 0 -3 29 -6 65 -6 l65 0
0 -29 c0 -16 -4 -41 -10 -55 -9 -24 -14 -26 -79 -26 -82 0 -75 10 -92 -143
-12 -115 -6 -188 15 -206 17 -14 100 27 156 77 41 36 42 40 51 122 27 238 122
449 243 541 59 45 94 57 169 58 52 1 62 -2 88 -28z m-2540 -278 c17 -10 41
-40 56 -70 22 -46 29 -53 55 -53 16 0 59 12 94 26 61 24 67 25 83 10 10 -9 26
-34 36 -55 17 -38 17 -40 -19 -170 -37 -135 -43 -176 -27 -185 11 -7 75 40
128 95 l42 44 16 135 c9 74 18 145 21 157 5 24 49 43 104 43 84 0 99 -79 50
-269 -17 -69 -30 -142 -28 -165 3 -34 7 -42 31 -50 88 -31 177 141 177 340 0
87 2 97 25 119 31 32 129 40 147 13 15 -24 8 -134 -17 -262 -26 -134 -31 -191
-16 -200 17 -11 75 40 101 89 32 59 70 86 93 66 9 -7 23 -34 32 -61 21 -62 49
-99 91 -116 33 -14 94 -19 94 -8 0 16 -30 57 -92 123 -91 97 -101 119 -96 196
3 50 10 70 32 100 59 77 191 107 283 66 52 -24 63 -45 63 -115 0 -50 -4 -60
-36 -96 -19 -21 -44 -42 -55 -45 -27 -9 -24 -22 15 -66 69 -76 69 -168 1 -228
-93 -81 -312 -81 -401 1 -21 19 -22 18 -94 -18 -108 -55 -165 -46 -190 31
l-11 32 -42 -43 c-64 -63 -136 -76 -244 -43 -18 6 -45 25 -62 44 l-29 33 -23
-25 c-34 -37 -97 -63 -152 -63 -40 0 -53 5 -77 28 -57 57 -63 174 -17 311 l23
70 -45 -5 c-25 -3 -51 -7 -57 -9 -21 -6 -37 -119 -35 -240 2 -117 1 -122 -23
-144 -15 -14 -42 -25 -69 -28 -41 -5 -47 -3 -63 23 -16 23 -18 46 -17 146 2
128 14 206 44 275 l19 44 -24 32 c-33 44 -40 73 -26 107 20 49 79 63 131 33z
m3930 -33 c112 -31 118 -184 9 -256 l-39 -26 33 -42 c46 -56 56 -79 56 -121 0
-48 -23 -96 -59 -123 -95 -70 -307 -68 -385 4 -61 57 -68 127 -20 210 43 75
82 70 113 -14 11 -32 30 -68 42 -81 27 -29 79 -51 119 -51 l31 0 -16 31 c-9
16 -47 62 -84 102 -81 85 -101 121 -101 178 0 139 148 231 301 189z"/>
<path d="M3325 2877 c-44 -46 -95 -158 -111 -242 -7 -39 -5 -37 71 60 98 125
117 157 113 191 -5 43 -26 40 -73 -9z"/>
<path d="M4258 2593 c-23 -6 -23 -15 2 -63 27 -54 39 -58 67 -24 51 64 15 109
-69 87z"/>
<path d="M3711 2564 c-23 -29 -44 -87 -39 -108 2 -10 17 -5 55 20 52 33 72 66
59 99 -9 24 -52 18 -75 -11z"/>
<path d="M2318 2593 c-10 -2 -18 -10 -18 -16 0 -23 46 -92 60 -92 8 0 24 17
35 37 15 29 18 42 9 55 -11 18 -53 26 -86 16z"/>
<path d="M4773 2594 c-20 -9 -15 -44 10 -81 12 -18 25 -33 29 -33 18 0 49 56
46 84 -3 28 -7 31 -38 33 -19 1 -41 0 -47 -3z"/>
</g>
</svg>
